<?xml version="1.0" encoding="UTF-8"?>
<svg id="Layer_1" xmlns="http://www.w3.org/2000/svg" xmlns:xlink="http://www.w3.org/1999/xlink" version="1.1" viewBox="0 0 512 512">
  <!-- Generator: Adobe Illustrator 29.1.0, SVG Export Plug-In . SVG Version: 2.1.0 Build 142)  -->
  <defs>
    <style>
      .st0 {
        fill: url(#linear-gradient2);
      }

      .st1 {
        fill: url(#linear-gradient1);
      }

      .st2 {
        fill: url(#linear-gradient);
      }
    </style>
    <linearGradient id="linear-gradient" x1="32.5" y1="422.5" x2="470.3" y2="95.3" gradientTransform="translate(0 512) scale(1 -1)" gradientUnits="userSpaceOnUse">
      <stop offset="0" stop-color="#f3efff"/>
      <stop offset=".8" stop-color="#fcfbff"/>
    </linearGradient>
    <linearGradient id="linear-gradient1" x1="172.6" y1="188.8" x2="271.5" y2="362" gradientTransform="translate(0 512) scale(1 -1)" gradientUnits="userSpaceOnUse">
      <stop offset="0" stop-color="#262435"/>
      <stop offset=".5" stop-color="#594574"/>
      <stop offset="1" stop-color="#2d6275"/>
    </linearGradient>
    <linearGradient id="linear-gradient2" x1="246" y1="348.7" x2="371.6" y2="170.9" gradientUnits="userSpaceOnUse">
      <stop offset=".2" stop-color="#262435"/>
      <stop offset="1" stop-color="#2d6275"/>
    </linearGradient>
  </defs>
  <circle class="st2" cx="255.6" cy="256.2" r="250.4"/>
  <g>
    <path class="st1" d="M298.6,168c6-.7,12.4.7,18.8,0,28.5-4.3,28.8-46.2-4.3-49.1-42.3-3.2-90.3,19.9-117.7,51.6-49.4,56.9-32.7,125.5-36.3,195.2.7,21.3,26.3,33.1,42,18.1,3.2-2.8,6.4-8.2,7.1-12.4,1.8-35.2-2.1-72.2,0-107.4,3.2-49.1,39.8-91.4,90-95.7h0l.4-.4Z"/>
    <path class="st0" d="M275.2,254.4c-7.8,13.9.4,32-8.5,42-2.1,2.1-5.3,2.8-6.8,5h43c10.7,0,26-11.7,28.1-22.4,7.8-37.7-39.1-53.7-55.8-24.5h0Z"/>
  </g>
</svg>